<?xml version="1.0" encoding="utf-8"?>
<!-- Generator: Adobe Illustrator 25.1.0, SVG Export Plug-In . SVG Version: 6.00 Build 0)  -->
<svg version="1.1" id="INFO" xmlns="http://www.w3.org/2000/svg" xmlns:xlink="http://www.w3.org/1999/xlink" x="0px" y="0px"
	 viewBox="0 0 500 500" style="enable-background:new 0 0 500 500;" xml:space="preserve">
<path d="M250,45c27.69,0,54.53,5.42,79.79,16.1c24.41,10.32,46.33,25.11,65.17,43.94c18.83,18.83,33.62,40.76,43.94,65.17
	c10.68,25.26,16.1,52.1,16.1,79.79s-5.42,54.53-16.1,79.79c-10.32,24.41-25.11,46.33-43.94,65.17
	c-18.83,18.83-40.76,33.62-65.17,43.94C304.53,449.58,277.69,455,250,455s-54.53-5.42-79.79-16.1
	c-24.41-10.32-46.33-25.11-65.17-43.94c-18.83-18.83-33.62-40.76-43.94-65.17C50.42,304.53,45,277.69,45,250s5.42-54.53,16.1-79.79
	c10.32-24.41,25.11-46.33,43.94-65.17c18.83-18.83,40.76-33.62,65.17-43.94C195.47,50.42,222.31,45,250,45 M250,20
	C122.97,20,20,122.97,20,250s102.97,230,230,230s230-102.97,230-230S377.03,20,250,20L250,20z"/>
<rect x="225" y="167.5" width="50" height="240"/>
<rect x="225" y="92.5" width="50" height="50"/>
</svg>
