<?xml version="1.0" encoding="utf-8"?>
<!-- Generator: Adobe Illustrator 25.1.0, SVG Export Plug-In . SVG Version: 6.00 Build 0)  -->
<svg version="1.1" id="INSTA_1_" xmlns="http://www.w3.org/2000/svg" xmlns:xlink="http://www.w3.org/1999/xlink" x="0px" y="0px"
	 viewBox="0 0 500 500" style="enable-background:new 0 0 500 500;" xml:space="preserve">
<g id="INSTA">
	<g>
		<path d="M473.86,157.3c-1.05-23.91-4.92-40.35-10.46-54.59c-5.72-15.12-14.51-28.66-26.03-39.91
			c-11.26-11.43-24.88-20.31-39.83-25.93c-14.33-5.54-30.68-9.41-54.6-10.46C318.84,25.26,311.2,25,250.09,25
			s-68.76,0.26-92.76,1.32c-23.91,1.05-40.36,4.92-54.6,10.46C87.6,42.49,74.06,51.28,62.81,62.8
			C51.38,74.05,42.5,87.68,36.87,102.62c-5.54,14.33-9.41,30.68-10.46,54.59C25.26,181.3,25,188.95,25,250.04s0.26,68.74,1.32,92.74
			c1.05,23.91,4.93,40.35,10.47,54.59c5.72,15.12,14.59,28.66,26.02,39.91c11.26,11.43,24.88,20.31,39.83,25.93
			c14.33,5.54,30.68,9.41,54.6,10.46c24,1.06,31.65,1.32,92.76,1.32s68.76-0.26,92.76-1.32c23.91-1.05,40.36-4.92,54.6-10.46
			c30.25-11.69,54.16-35.6,65.86-65.84c5.54-14.33,9.41-30.68,10.46-54.59c1.05-24,1.32-31.65,1.32-92.74S474.91,181.3,473.86,157.3
			z M433.33,341.03c-0.97,21.98-4.66,33.84-7.74,41.76c-7.56,19.6-23.12,35.16-42.73,42.72c-7.91,3.08-19.87,6.77-41.76,7.73
			c-23.74,1.06-30.86,1.32-90.91,1.32s-67.26-0.26-90.92-1.32c-21.98-0.96-33.85-4.66-41.76-7.73c-9.76-3.61-18.64-9.32-25.85-16.79
			c-7.47-7.3-13.19-16.09-16.8-25.84c-3.08-7.91-6.77-19.87-7.73-41.76c-1.06-23.74-1.32-30.86-1.32-90.9s0.26-67.25,1.32-90.9
			c0.97-21.98,4.66-33.84,7.73-41.76c3.61-9.76,9.32-18.64,16.88-25.85c7.3-7.47,16.09-13.19,25.85-16.79
			c7.91-3.08,19.87-6.77,41.76-7.74c23.74-1.05,30.86-1.32,90.91-1.32c60.14,0,67.26,0.26,90.92,1.32
			c21.98,0.97,33.85,4.66,41.76,7.74c9.76,3.6,18.64,9.32,25.85,16.79c7.47,7.3,13.19,16.09,16.8,25.85
			c3.08,7.91,6.77,19.87,7.74,41.76c1.05,23.74,1.32,30.85,1.32,90.9S434.38,317.29,433.33,341.03z"/>
		<path d="M250.09,134.45c-63.83,0-115.62,51.78-115.62,115.6s51.79,115.6,115.62,115.6s115.62-51.78,115.62-115.6
			S313.92,134.45,250.09,134.45z M250.09,325.03c-41.41,0-75-33.58-75-74.99s33.59-74.99,75-74.99s75,33.58,75,74.99
			S291.5,325.03,250.09,325.03z"/>
		<path d="M397.28,129.88c0,14.9-12.09,26.99-27,26.99s-26.99-12.08-26.99-26.99s12.09-26.99,26.99-26.99
			C385.19,102.89,397.28,114.97,397.28,129.88z"/>
	</g>
</g>
</svg>
